<svg id="Layer_1" xmlns="http://www.w3.org/2000/svg" viewBox="0 0 400 225"><style>.st0{fill:#F2F2F2;} .st1{fill:#A1CE57;} .st2{fill:#40B1E5;} .st3{fill:#005C90;} .st4{fill:#333333;} .st5{fill:#FFFFFF;} .st6{fill:#CCCCCC;}</style><path class="st6" d="M93 135.5c-9.8 4.5-21.9 12.9-28.7 23.8-5.3 8.7-6.1 19.9-2.2 29.3 6.3 15 23 19.7 37.5 22.7 26.9 5.6 55.3 4.7 81.6-3.3 21.2-6.5 41.8-14.6 63.1-20.9 4.8-1.4 35-8.1 57-9.1 0 0 53.2-4.3 23.5-37.9 0 0-4.8 9.1-10.1 12.5 0 0 1.9-48.9 0-56.5-1.9-7.7-9.6-34.5-51.3-38.8 0 0-35.5-2.4-63.7 7.7-21.3 7.6-36.5 27.6-47.6 46.3-.8-9.1 4.2-18.8 9.1-26 11.8-17.5 29.5-29.9 49.6-36.1 7.9-2.4 16.1-3.9 24.3-4.4 21.2-1.1 43.9 4.4 61.2 16.9-7.1-10.9-17.1-18.5-28.9-23.7-30.4-13.3-64.4-10-92.3 7.6-19.5 12.3-33.4 31-43.6 51.3 1-14 7-26.3 14.9-37.6 11-15.7 30.7-27.4 48.2-34.5 12.3-5 28.9-5.7 40.6-5.8-1.5-.4-3-.6-4.2-.9-1.7-.4-3.5-.8-5.2-1.1-3.6-.7-7.3-1.1-11-1.4-12.8-.9-25.7.6-37.9 4.6-28 9.2-49.3 30.7-63.3 56.1-4.3 7.8-7.4 14.6-8.6 23.5-1.3 9.4-1.1 18.8-.9 28.3.1 3.9.2 8 2.1 11.5 2.2 3.9 6.3 6.3 10.3 8.3 11.1 5.5 23 9.4 35.3 11.5 1.8.3 3.7.6 5.1 1.7 1.4 1.1 2.2 3.3 1.1 4.8-.9 1.3-2.8 1.4-4.3 1.5-23.1-.3-51.8-8-60.7-31.9z"/><path class="st2" d="M93 130.6c-9.8 4.5-21.9 12.9-28.7 23.8-5.3 8.7-6.1 19.9-2.2 29.3 6.3 15 23 19.7 37.5 22.7 26.9 5.6 55.3 4.7 81.6-3.3 21.2-6.5 41.8-14.6 63.1-20.9 4.8-1.4 35-8.1 57-9.1 0 0 53.2-4.3 23.5-37.9 0 0-4.8 9.1-10.1 12.5 0 0 1.9-48.9 0-56.5-1.9-7.7-9.6-34.5-51.3-38.8 0 0-35.5-2.4-63.7 7.7-21.3 7.6-36.5 27.6-47.6 46.3-.8-9.1 4.2-18.8 9.1-26 11.8-17.5 29.5-29.9 49.6-36.1 7.9-2.4 16.1-3.9 24.3-4.4 21.2-1.1 43.9 4.4 61.2 16.9-7.1-10.9-17.1-18.5-28.9-23.7-30.4-13.3-64.4-10-92.3 7.6-19.5 12.3-33.4 31-43.6 51.3 1-14 7-26.3 14.9-37.6 11-15.7 30.7-27.4 48.2-34.5 12.3-5 28.9-5.7 40.6-5.8-1.5-.4-3-.6-4.2-.9-1.7-.4-3.5-.8-5.2-1.1-3.6-.7-7.3-1.1-11-1.4-12.8-1.2-25.7.3-37.9 4.3-28 9.2-49.3 30.7-63.3 56.1-4.3 7.8-7.4 14.6-8.6 23.5-1.3 9.4-1.1 18.8-.9 28.3.1 3.9.2 8 2.1 11.5 2.2 3.9 6.3 6.3 10.3 8.3 11.1 5.5 23 9.4 35.3 11.5 1.8.3 3.7.6 5.1 1.7 1.4 1.1 2.2 3.3 1.1 4.8-.9 1.3-2.8 1.4-4.3 1.5-23.1.1-51.8-7.6-60.7-31.6z"/></svg>